<?xml version="1.0" standalone="no"?>
<!DOCTYPE svg PUBLIC "-//W3C//DTD SVG 20010904//EN"
 "http://www.w3.org/TR/2001/REC-SVG-20010904/DTD/svg10.dtd">
<svg version="1.0" xmlns="http://www.w3.org/2000/svg"
 width="421.000000pt" height="421.000000pt" viewBox="0 0 421.000000 421.000000"
 preserveAspectRatio="xMidYMid meet">
<metadata>
Created by potrace 1.14, written by Peter Selinger 2001-2017
</metadata>
<g transform="translate(0.000000,421.000000) scale(0.100000,-0.100000)"
fill="#000000" stroke="none">
<path d="M1945 3854 c-11 -1 -69 -8 -130 -14 -515 -54 -1036 -302 -1356 -645
-91 -97 -110 -121 -180 -224 -121 -179 -207 -376 -243 -556 -8 -44 -18 -93
-22 -110 -15 -75 -11 -327 8 -438 118 -697 717 -1267 1525 -1451 191 -43 326
-59 528 -60 166 -1 292 5 360 18 11 2 43 7 70 10 76 11 255 53 348 82 441 140
833 416 1066 755 200 289 291 580 286 913 -12 727 -562 1370 -1389 1620 -113
35 -315 76 -441 91 -60 7 -392 14 -430 9z"/>
</g>
</svg>
