<?xml version="1.0" standalone="no"?>
<!DOCTYPE svg PUBLIC "-//W3C//DTD SVG 20010904//EN"
 "http://www.w3.org/TR/2001/REC-SVG-20010904/DTD/svg10.dtd">
<svg version="1.0" xmlns="http://www.w3.org/2000/svg"
 width="421.000000pt" height="351.000000pt" viewBox="0 0 421.000000 351.000000"
 preserveAspectRatio="xMidYMid meet">
<metadata>
Created by potrace 1.16, written by Peter Selinger 2001-2019
</metadata>
<g transform="translate(0.000000,351.000000) scale(0.100000,-0.100000)"
fill="#000000" stroke="none">
<path d="M1945 3466 c-29 -13 -27 -13 31 -9 52 5 66 2 100 -19 24 -16 40 -34
41 -47 2 -25 6 -25 -42 -1 -22 11 -48 20 -60 19 -12 -1 -7 -5 16 -13 59 -18
91 -57 67 -81 -3 -3 -26 6 -51 20 -51 28 -72 33 -41 10 27 -20 8 -18 -56 6
-53 20 -94 21 -134 4 -14 -6 -17 -5 -11 4 15 25 -32 -8 -62 -42 -15 -18 -49
-45 -75 -60 -51 -29 -99 -84 -126 -144 -9 -21 -28 -53 -41 -72 l-24 -33 24 12
24 13 -25 -29 c-14 -16 -30 -33 -36 -39 -6 -5 -18 -23 -28 -38 -9 -16 -22 -25
-28 -21 -7 4 -8 3 -4 -5 4 -6 -2 -36 -13 -65 -11 -30 -23 -78 -27 -108 -4 -35
-17 -70 -39 -103 -18 -28 -36 -62 -40 -75 -4 -14 -12 -31 -18 -38 -8 -10 -7
-16 2 -21 10 -7 10 -14 -2 -37 -8 -16 -17 -55 -20 -86 -4 -46 -3 -58 9 -58 8
0 14 -7 14 -15 0 -9 6 -12 15 -9 19 8 20 -19 1 -49 -17 -27 -30 -108 -19 -124
5 -6 22 -13 38 -15 29 -3 30 -6 40 -68 10 -61 13 -66 47 -83 27 -13 41 -30 58
-69 27 -64 68 -128 94 -150 18 -15 19 -19 6 -43 -13 -25 -13 -28 10 -46 26
-20 68 -35 75 -27 6 5 -37 114 -66 170 -10 20 -19 43 -19 50 0 7 -7 27 -16 43
-9 17 -20 44 -25 60 l-9 30 21 -25 20 -25 -8 55 c-11 73 -8 238 6 385 7 66 14
142 16 168 3 53 27 87 54 80 10 -2 35 5 56 17 30 17 36 18 32 6 -9 -23 -4 -20
43 19 24 20 47 34 53 32 6 -2 24 11 41 29 39 40 61 47 162 49 45 1 87 6 94 10
8 5 11 4 7 -2 -4 -6 4 -14 18 -17 21 -5 24 -10 16 -25 -12 -21 -5 -32 15 -24
10 4 14 -3 14 -22 0 -15 4 -24 10 -20 6 3 10 -3 10 -15 0 -12 5 -30 10 -41 7
-11 7 -19 1 -19 -5 0 -11 6 -14 13 -2 6 -7 -2 -11 -20 -4 -18 -24 -47 -47 -68
-32 -28 -40 -43 -41 -73 -2 -50 11 -129 27 -173 10 -26 11 -47 4 -78 -10 -47
-5 -123 11 -167 12 -30 5 -94 -9 -94 -5 0 -12 7 -15 16 -5 13 -9 14 -21 4 -8
-7 -15 -21 -15 -31 0 -24 -6 -24 -37 1 -26 21 -77 27 -87 11 -8 -13 48 -31 74
-24 16 4 23 0 27 -15 2 -11 13 -22 24 -25 14 -4 18 -12 15 -29 -3 -12 -5 -26
-5 -29 -1 -4 -9 -9 -18 -13 -10 -3 -25 -9 -33 -14 -42 -25 -61 -29 -130 -28
-41 1 -81 3 -89 6 -7 3 -15 0 -18 -6 -2 -6 15 -22 39 -34 24 -12 53 -33 66
-46 16 -15 41 -25 78 -30 30 -3 74 -12 97 -19 l42 -13 -28 -11 c-16 -6 -34
-11 -40 -11 -7 0 -4 -7 6 -14 9 -7 17 -19 17 -25 0 -7 7 -25 15 -41 16 -32 41
-38 76 -19 16 8 25 7 37 -4 9 -8 25 -17 35 -20 10 -4 16 -11 13 -16 -11 -17 5
-40 22 -34 10 4 2 -11 -18 -35 -19 -22 -46 -44 -60 -48 -14 -4 -54 -20 -88
-36 -35 -15 -68 -25 -73 -22 -5 3 -9 1 -9 -4 0 -13 56 -38 104 -47 21 -3 50
-14 63 -22 21 -14 24 -22 19 -52 -12 -84 -12 -83 19 -101 29 -17 30 -19 27
-83 -4 -66 -4 -66 30 -83 21 -11 51 -16 84 -15 49 2 52 1 62 -28 6 -17 10 -67
9 -112 -1 -44 1 -83 6 -86 17 -10 56 -12 62 -3 4 6 11 8 16 5 5 -4 9 -2 9 3 0
18 63 -4 81 -28 10 -14 20 -46 24 -72 5 -45 1 -56 -61 -170 -37 -68 -96 -174
-131 -236 -36 -63 -63 -115 -61 -117 2 -2 44 2 93 10 176 27 177 27 170 43 -5
12 -3 13 10 2 13 -11 18 -11 28 0 10 10 9 11 -2 5 -10 -6 -12 -4 -7 4 6 8 12
9 20 2 7 -6 16 -8 19 -4 4 3 17 7 29 7 13 1 29 5 36 9 6 5 16 6 21 2 5 -3 12
-1 16 5 4 6 10 8 14 6 4 -3 11 -2 16 2 18 13 70 75 58 68 -8 -4 -13 -2 -13 6
-1 8 -6 6 -15 -6 -8 -10 -12 -23 -8 -29 4 -6 1 -7 -7 -2 -8 5 -11 4 -7 -2 4
-6 0 -16 -7 -22 -22 -19 -14 13 12 49 12 16 23 33 23 37 1 15 32 43 40 37 5
-3 7 -10 3 -15 -3 -5 -10 -6 -16 -3 -7 5 -8 2 -3 -6 5 -8 4 -11 -2 -7 -5 3
-10 0 -10 -8 0 -13 3 -13 17 0 20 18 34 20 24 3 -5 -9 -2 -9 9 1 9 7 17 10 17
5 0 -4 10 2 23 14 13 12 27 20 30 17 4 -3 5 -2 2 2 -3 3 1 13 7 22 7 9 -1 5
-17 -9 -26 -22 -26 -20 4 13 19 20 37 37 39 37 8 0 43 -91 37 -99 -10 -17 42
-1 106 32 67 34 66 32 70 127 1 24 5 57 10 72 5 17 4 30 -3 34 -7 5 -8 2 -3
-7 5 -8 4 -11 0 -6 -14 12 -13 44 1 44 7 0 10 -5 7 -10 -3 -6 -1 -7 5 -3 7 4
8 17 2 36 -5 17 -5 28 0 25 5 -3 9 3 9 12 6 134 4 126 36 130 24 3 35 -3 55
-28 14 -18 34 -40 45 -51 11 -10 30 -29 42 -40 39 -38 37 -10 -2 34 -21 23
-34 43 -28 45 17 6 136 -66 165 -99 l28 -32 25 24 c13 12 23 26 20 29 -9 15
-428 217 -569 275 -135 56 -204 93 -250 136 -23 21 -54 42 -69 45 -32 8 -74
58 -112 135 -15 30 -37 68 -49 85 -18 25 -21 47 -24 161 -4 110 -2 136 12 155
9 13 16 34 16 47 0 12 12 35 26 49 19 18 28 42 33 80 5 34 14 58 26 67 11 8
15 18 10 26 -5 8 5 23 30 44 28 24 38 41 41 70 3 21 14 50 25 65 15 21 20 40
17 77 l-3 49 43 9 c50 11 58 30 44 94 -8 32 -7 44 4 53 21 17 17 29 -11 29
-32 0 -31 9 5 87 47 99 38 144 -21 112 -34 -18 -83 28 -107 101 -12 34 -19 67
-15 75 3 8 0 15 -6 15 -6 0 -11 4 -11 10 0 17 -62 150 -69 147 -3 -2 -22 12
-41 30 -27 26 -31 33 -17 33 15 0 16 2 5 13 -7 7 -26 21 -43 31 -31 18 -75 77
-75 100 0 7 17 17 38 23 l37 10 -41 2 c-23 0 -47 8 -54 16 -7 8 -18 15 -25 15
-7 0 -18 6 -24 14 -7 8 -21 12 -31 9 -12 -3 -20 0 -20 7 0 9 14 11 53 7 l52
-6 -55 26 c-30 15 -57 27 -60 28 -40 9 -60 17 -60 26 0 6 -7 4 -15 -5 -9 -8
-22 -13 -29 -10 -7 3 -21 -2 -30 -11 -9 -9 -20 -14 -25 -10 -15 9 -41 66 -35
76 3 5 -2 6 -10 3 -13 -5 -16 2 -16 39 0 37 -6 51 -38 87 -35 39 -43 43 -92
47 -33 2 -67 -2 -85 -11z"/>
<path d="M1720 2405 c-10 -13 -9 -15 12 -15 36 0 88 -20 88 -34 0 -15 -29 -32
-98 -57 -66 -25 -112 -63 -112 -95 0 -19 3 -21 39 -14 21 4 51 6 66 4 l28 -3
-22 16 c-15 10 -19 19 -13 25 9 9 48 -19 55 -39 1 -5 5 -7 10 -5 18 6 4 -9
-20 -22 -47 -24 -3 -31 75 -11 76 20 103 41 105 79 1 14 5 26 9 26 18 0 18 44
-1 80 -14 28 -17 40 -8 43 20 7 3 16 -53 27 -78 15 -145 13 -160 -5z"/>
<path d="M1824 1972 c-29 -25 -50 -62 -74 -131 -26 -77 -25 -91 5 -151 38 -76
61 -79 30 -3 -21 51 -19 88 8 115 34 34 54 69 60 108 3 19 8 45 12 58 9 27
-11 29 -41 4z"/>
<path d="M1672 1248 c-22 -22 -14 -93 36 -302 14 -58 22 -72 47 -87 17 -10 47
-18 69 -18 37 -1 38 -2 33 -31 -4 -16 -2 -32 3 -35 6 -3 10 -17 10 -30 0 -20
4 -23 28 -21 25 3 27 7 27 45 -1 43 9 54 20 22 3 -10 19 -32 35 -49 18 -19 35
-54 45 -89 17 -64 44 -144 82 -243 14 -36 28 -81 32 -100 4 -19 13 -45 19 -57
16 -30 72 -204 72 -225 0 -23 15 -31 48 -23 25 5 29 13 50 103 18 76 21 105
13 132 -6 19 -17 81 -26 137 -26 164 -65 252 -167 371 -27 30 -48 61 -48 69 0
14 -9 16 -80 13 -85 -2 -212 93 -284 214 -30 50 -36 69 -37 120 -1 75 -9 102
-27 84z"/>
<path d="M1433 858 c-26 -57 -66 -215 -93 -370 -23 -131 -25 -162 -10 -153 6
4 8 10 5 15 -3 5 6 21 21 37 14 15 31 39 37 53 l10 25 7 -25 8 -25 1 28 c1 15
10 59 21 98 18 65 18 73 4 95 -15 21 -14 32 1 117 9 51 15 106 13 123 -4 28
-4 28 -25 -18z"/>
<path d="M1629 793 c-35 -31 -67 -61 -71 -67 -11 -19 3 -96 17 -96 8 0 22 12
34 28 18 24 21 25 35 12 17 -17 92 -236 99 -290 1 -8 8 -26 16 -39 7 -13 9
-21 4 -18 -5 3 -8 -4 -7 -16 1 -12 3 -26 3 -30 1 -5 4 -6 9 -4 4 3 8 -9 10
-26 4 -58 6 -66 16 -60 5 4 7 -1 3 -11 -4 -9 -3 -15 2 -12 4 3 13 -6 20 -20 6
-14 7 -23 2 -19 -5 3 -13 0 -17 -6 -5 -8 -3 -9 5 -5 8 5 14 0 18 -13 3 -11 10
-18 16 -14 6 3 7 1 3 -6 -4 -6 -2 -18 4 -26 6 -8 9 -18 6 -24 -7 -11 9 -16 70
-26 32 -5 43 -3 47 9 4 9 3 15 -1 15 -29 -5 -34 2 -19 25 14 20 14 24 2 22 -8
-1 -18 -6 -22 -11 -4 -4 -2 -5 6 0 10 5 12 4 7 -4 -13 -20 -27 -1 -15 20 9 17
7 20 -8 17 -10 -2 -18 3 -19 12 -3 37 -5 41 -16 34 -7 -4 -8 -3 -4 5 4 6 11 9
16 6 5 -3 12 0 16 6 4 8 3 9 -4 5 -17 -10 -15 5 4 25 14 16 14 17 -3 15 -10
-2 -18 -8 -18 -14 0 -7 -4 -11 -10 -9 -5 1 -8 8 -7 16 2 7 -1 10 -7 6 -7 -4
-8 1 -4 12 6 16 5 17 -13 3 -18 -14 -18 -14 -5 2 7 10 17 16 21 13 5 -3 11 -2
14 3 3 5 -1 9 -9 10 -8 1 -22 3 -30 4 -8 1 -12 5 -9 10 3 5 10 6 15 3 5 -3 6
1 3 9 -3 9 -11 13 -16 10 -7 -5 -7 -1 0 11 7 14 3 29 -18 64 -23 41 -36 73
-41 106 0 6 -5 17 -9 25 -4 8 -11 32 -14 54 -3 21 -15 65 -26 99 -24 72 -25
88 -5 81 11 -5 13 1 8 28 -3 25 0 39 12 52 14 13 15 19 5 31 -23 28 -56 16
-121 -42z"/>
</g>
</svg>
